<svg id="Layer_1" data-name="Layer 1" xmlns="http://www.w3.org/2000/svg" viewBox="0 0 512 512" fill="blue">
<path fill="#666666" d="M397.3023,48.6778h-30.95v-8.96a21,21,0,1,0-42,0v8.96h-136.7v-8.96a21,21,0,0,0-42,0v8.96h-30.96a81.0963,81.0963,0,0,0-81,81v257.59a81.0963,81.0963,0,0,0,81,81h282.61a81.0963,81.0963,0,0,0,81-81v-257.59A81.0963,81.0963,0,0,0,397.3023,48.6778Zm39,338.59a39.0437,39.0437,0,0,1-39,39h-282.61a39.05,39.05,0,0,1-39-39v-257.59a39.0437,39.0437,0,0,1,39-39h282.61a39.0373,39.0373,0,0,1,39,39Z"/>
<path fill="#666666" d="M326.9435,204.7165H190.57a21,21,0,0,1,0-42h136.374a21,21,0,0,1,0,42Z"/>
</svg>