<?xml version="1.0" encoding="UTF-8"?><svg id="a" xmlns="http://www.w3.org/2000/svg" viewBox="0 0 512 512"><path d="M403.9224,19.586H199.5522c-48.8198,0-88.54,39.71-88.54,88.53v8.45h-10.3901c-44.6699,0-81,36.3301-81,81v219.4399c0,44.67,36.3301,81.0001,81,81.0001h219.4404c44.6597,0,81-36.33,81-81.0001v-15.98h2.8599c48.8198,0,88.54-39.72,88.54-88.53V108.116c0-48.8201-39.7202-88.53-88.54-88.53Zm-44.8599,397.4199c0,21.51-17.5,39.0001-39,39.0001H100.6221c-21.5098,0-39-17.4901-39-39.0001V197.566c0-21.51,17.4902-39,39-39h219.4404c21.5,0,39,17.49,39,39v219.4399Zm91.3999-104.51c0,25.6602-20.8804,46.53-46.54,46.53h-2.8599V197.566c0-44.6699-36.3403-81-81-81H153.0122v-8.45c0-25.66,20.8799-46.53,46.54-46.53h204.3701c25.6597,0,46.54,20.87,46.54,46.53v204.3799Z" fill="#FFFFFF"/></svg>