<?xml version="1.0" encoding="UTF-8"?><svg id="a" xmlns="http://www.w3.org/2000/svg" viewBox="0 0 512 512">
<path d="M71.6769,367.9582c-6.9411,0-13.6907-3.6031-17.4082-10.0475-16.0909-27.8945-24.5957-59.7486-24.5957-92.1186,0-101.788,82.811-184.5985,184.5985-184.5985h88.8278l-26.5226-50.8275c-5.129-9.8295-1.3182-21.9561,8.5113-27.0851,9.8286-5.1281,21.9565-1.3187,27.0855,8.5108l41.8433,80.19c3.2479,6.2231,3.0089,13.6903-.6302,19.6931-3.6381,6.0028-10.1479,9.6694-17.1673,9.6694h-121.9479c-79.649,0-144.4478,64.7988-144.4478,144.4473,0,25.3374,6.6479,50.2543,19.224,72.0568,5.5398,9.6041,2.2452,21.8809-7.3584,27.4207-3.1592,1.8228-6.6096,2.6891-10.0125,2.6891Z" fill="#408DFB"/>
<path d="M217.6426,511c-7.2407,0-14.2331-3.9289-17.8143-10.792l-41.8452-80.19c-3.2479-6.2236-3.0089-13.6907,.6292-19.6936,3.639-6.0028,10.1488-9.6694,17.1683-9.6694h121.9488c79.6481,0,144.4468-64.7988,144.4468-144.4473,0-25.3374-6.6479-50.2543-19.224-72.0568-5.5398-9.6041-2.2452-21.8809,7.3584-27.4207,9.6036-5.5402,21.8809-2.2448,27.4207,7.3584,16.0909,27.8945,24.5957,59.7486,24.5957,92.1186,0,101.788-82.81,184.5985-184.5976,184.5985h-88.8287l26.5226,50.827c5.1299,9.8295,1.3191,21.9561-8.5104,27.0855-2.9659,1.5479-6.141,2.2816-9.2703,2.2816Z" fill="#408DFB"/></svg>