<?xml version="1.0" encoding="utf-8"?>
<!-- Generator: Adobe Illustrator 26.2.0, SVG Export Plug-In . SVG Version: 6.00 Build 0)  -->
<svg version="1.1" id="Layer_1" xmlns="http://www.w3.org/2000/svg" xmlns:xlink="http://www.w3.org/1999/xlink" x="0px" y="0px"
	 viewBox="0 0 512 512" enable-background="new 0 0 512 512" xml:space="preserve">
<g>
	<g>
		<path fill="#FFFFFF" d="M158.2,469c-30.8,0-59.7-12-81.5-33.7c-44.9-44.9-44.9-118,0-162.9l32.5-32.5c8.2-8.2,21.5-8.2,29.7,0
			c8.2,8.2,8.2,21.5,0,29.7L106.5,302c-28.5,28.5-28.5,75,0,103.5c28.5,28.5,75,28.5,103.5,0l66.1-66.1c8.6-8.6,15-19.3,18.4-30.9
			c7.6-25.8,0.6-53.6-18.4-72.6c-8.2-8.2-8.2-21.5,0-29.7c8.2-8.2,21.5-8.2,29.7,0c29.9,29.9,41,73.7,29,114.2
			c-5.4,18.3-15.4,35.1-29,48.7l-66.1,66.1C217.9,457,189,469,158.2,469z"/>
	</g>
	<g>
		<path fill="#FFFFFF" d="M221,312c-5.4,0-10.7-2.1-14.8-6.2c-44.9-44.9-44.9-118,0-162.9l66.1-66.1C294,55,322.9,43,353.7,43
			c30.8,0,59.7,12,81.5,33.7c21.8,21.8,33.7,50.7,33.7,81.5c0,30.8-12,59.7-33.7,81.5c-8.2,8.2-21.5,8.2-29.7,0s-8.2-21.5,0-29.7
			c28.5-28.5,28.5-75,0-103.5C391.7,92.7,373.3,85,353.7,85c-19.6,0-37.9,7.6-51.8,21.4l-66.1,66.1c-28.5,28.5-28.5,75,0,103.5
			c8.2,8.2,8.2,21.5,0,29.7C231.7,310,226.3,312,221,312z"/>
	</g>
</g>
</svg>
